<svg id="visual" viewBox="0 0 900 600" width="900" height="600" xmlns="http://www.w3.org/2000/svg" xmlns:xlink="http://www.w3.org/1999/xlink" version="1.1"><rect x="0" y="0" width="900" height="600" fill="#1D2625"></rect><path d="M0 315L21.5 303.2C43 291.3 86 267.7 128.8 262.3C171.7 257 214.3 270 257.2 288.8C300 307.7 343 332.3 385.8 333.7C428.7 335 471.3 313 514.2 306.8C557 300.7 600 310.3 642.8 318.5C685.7 326.7 728.3 333.3 771.2 324.7C814 316 857 292 878.5 280L900 268L900 0L878.5 0C857 0 814 0 771.2 0C728.3 0 685.7 0 642.8 0C600 0 557 0 514.2 0C471.3 0 428.7 0 385.8 0C343 0 300 0 257.2 0C214.3 0 171.7 0 128.8 0C86 0 43 0 21.5 0L0 0Z" fill="#c47c7b"></path><path d="M0 241L21.5 230.2C43 219.3 86 197.7 128.8 200C171.7 202.3 214.3 228.7 257.2 237.3C300 246 343 237 385.8 231.8C428.7 226.7 471.3 225.3 514.2 216.7C557 208 600 192 642.8 205.8C685.7 219.7 728.3 263.3 771.2 277.8C814 292.3 857 277.7 878.5 270.3L900 263L900 0L878.5 0C857 0 814 0 771.2 0C728.3 0 685.7 0 642.8 0C600 0 557 0 514.2 0C471.3 0 428.7 0 385.8 0C343 0 300 0 257.2 0C214.3 0 171.7 0 128.8 0C86 0 43 0 21.5 0L0 0Z" fill="#b97271"></path><path d="M0 176L21.5 180.2C43 184.3 86 192.7 128.8 204.5C171.7 216.3 214.3 231.7 257.2 239.8C300 248 343 249 385.8 249.3C428.7 249.7 471.3 249.3 514.2 249.7C557 250 600 251 642.8 242C685.7 233 728.3 214 771.2 204.5C814 195 857 195 878.5 195L900 195L900 0L878.5 0C857 0 814 0 771.2 0C728.3 0 685.7 0 642.8 0C600 0 557 0 514.2 0C471.3 0 428.7 0 385.8 0C343 0 300 0 257.2 0C214.3 0 171.7 0 128.8 0C86 0 43 0 21.5 0L0 0Z" fill="#ae6867"></path><path d="M0 151L21.5 155.2C43 159.3 86 167.7 128.8 161.8C171.7 156 214.3 136 257.2 131.3C300 126.7 343 137.3 385.8 147.8C428.7 158.3 471.3 168.7 514.2 169.7C557 170.7 600 162.3 642.8 163.2C685.7 164 728.3 174 771.2 168.7C814 163.3 857 142.7 878.5 132.3L900 122L900 0L878.5 0C857 0 814 0 771.2 0C728.3 0 685.7 0 642.8 0C600 0 557 0 514.2 0C471.3 0 428.7 0 385.8 0C343 0 300 0 257.2 0C214.3 0 171.7 0 128.8 0C86 0 43 0 21.5 0L0 0Z" fill="#a25e5d"></path><path d="M0 90L21.5 93.5C43 97 86 104 128.8 113.3C171.7 122.7 214.3 134.3 257.2 131.8C300 129.3 343 112.7 385.8 102.8C428.7 93 471.3 90 514.2 84.8C557 79.7 600 72.3 642.8 73.3C685.7 74.3 728.3 83.7 771.2 91C814 98.3 857 103.7 878.5 106.3L900 109L900 0L878.5 0C857 0 814 0 771.2 0C728.3 0 685.7 0 642.8 0C600 0 557 0 514.2 0C471.3 0 428.7 0 385.8 0C343 0 300 0 257.2 0C214.3 0 171.7 0 128.8 0C86 0 43 0 21.5 0L0 0Z" fill="#975453"></path><path d="M0 54L21.5 53.2C43 52.3 86 50.7 128.8 46.3C171.7 42 214.3 35 257.2 38.2C300 41.3 343 54.7 385.8 53.8C428.7 53 471.3 38 514.2 37.7C557 37.3 600 51.7 642.8 61.7C685.7 71.7 728.3 77.3 771.2 74.5C814 71.7 857 60.3 878.5 54.7L900 49L900 0L878.5 0C857 0 814 0 771.2 0C728.3 0 685.7 0 642.8 0C600 0 557 0 514.2 0C471.3 0 428.7 0 385.8 0C343 0 300 0 257.2 0C214.3 0 171.7 0 128.8 0C86 0 43 0 21.5 0L0 0Z" fill="#8c4a4a"></path></svg>