<svg id="visual" viewBox="0 0 900 600" width="900" height="600" xmlns="http://www.w3.org/2000/svg" xmlns:xlink="http://www.w3.org/1999/xlink" version="1.1"><path d="M0 365L16.7 348.8C33.3 332.7 66.7 300.3 100 294C133.3 287.7 166.7 307.3 200 323.7C233.3 340 266.7 353 300 363.7C333.3 374.3 366.7 382.7 400 369.7C433.3 356.7 466.7 322.3 500 321.7C533.3 321 566.7 354 600 360.8C633.3 367.7 666.7 348.3 700 327.7C733.3 307 766.7 285 800 274.2C833.3 263.3 866.7 263.7 883.3 263.8L900 264L900 601L883.3 601C866.7 601 833.3 601 800 601C766.7 601 733.3 601 700 601C666.7 601 633.3 601 600 601C566.7 601 533.3 601 500 601C466.7 601 433.3 601 400 601C366.7 601 333.3 601 300 601C266.7 601 233.3 601 200 601C166.7 601 133.3 601 100 601C66.7 601 33.3 601 16.7 601L0 601Z" fill="#b66f6e"></path><path d="M0 384L16.7 380.2C33.3 376.3 66.7 368.7 100 373C133.3 377.3 166.7 393.7 200 392C233.3 390.3 266.7 370.7 300 354.7C333.3 338.7 366.7 326.3 400 332C433.3 337.7 466.7 361.3 500 381.7C533.3 402 566.7 419 600 405.5C633.3 392 666.7 348 700 335.8C733.3 323.7 766.7 343.3 800 351.7C833.3 360 866.7 357 883.3 355.5L900 354L900 601L883.3 601C866.7 601 833.3 601 800 601C766.7 601 733.3 601 700 601C666.7 601 633.3 601 600 601C566.7 601 533.3 601 500 601C466.7 601 433.3 601 400 601C366.7 601 333.3 601 300 601C266.7 601 233.3 601 200 601C166.7 601 133.3 601 100 601C66.7 601 33.3 601 16.7 601L0 601Z" fill="#ab6565"></path><path d="M0 383L16.7 382.3C33.3 381.7 66.7 380.3 100 380.8C133.3 381.3 166.7 383.7 200 393.5C233.3 403.3 266.7 420.7 300 433.8C333.3 447 366.7 456 400 453.8C433.3 451.7 466.7 438.3 500 441.8C533.3 445.3 566.7 465.7 600 472.5C633.3 479.3 666.7 472.7 700 454.7C733.3 436.7 766.7 407.3 800 393.8C833.3 380.3 866.7 382.7 883.3 383.8L900 385L900 601L883.3 601C866.7 601 833.3 601 800 601C766.7 601 733.3 601 700 601C666.7 601 633.3 601 600 601C566.7 601 533.3 601 500 601C466.7 601 433.3 601 400 601C366.7 601 333.3 601 300 601C266.7 601 233.3 601 200 601C166.7 601 133.3 601 100 601C66.7 601 33.3 601 16.7 601L0 601Z" fill="#a15c5c"></path><path d="M0 474L16.7 472.5C33.3 471 66.7 468 100 462.8C133.3 457.7 166.7 450.3 200 459.2C233.3 468 266.7 493 300 492.8C333.3 492.7 366.7 467.3 400 467C433.3 466.7 466.7 491.3 500 493.5C533.3 495.7 566.7 475.3 600 469.3C633.3 463.3 666.7 471.7 700 471.5C733.3 471.3 766.7 462.7 800 455.8C833.3 449 866.7 444 883.3 441.5L900 439L900 601L883.3 601C866.7 601 833.3 601 800 601C766.7 601 733.3 601 700 601C666.7 601 633.3 601 600 601C566.7 601 533.3 601 500 601C466.7 601 433.3 601 400 601C366.7 601 333.3 601 300 601C266.7 601 233.3 601 200 601C166.7 601 133.3 601 100 601C66.7 601 33.3 601 16.7 601L0 601Z" fill="#965353"></path><path d="M0 538L16.7 533.5C33.3 529 66.7 520 100 517.3C133.3 514.7 166.7 518.3 200 514.8C233.3 511.3 266.7 500.7 300 500.3C333.3 500 366.7 510 400 521.7C433.3 533.3 466.7 546.7 500 554.5C533.3 562.3 566.7 564.7 600 565.5C633.3 566.3 666.7 565.7 700 564C733.3 562.3 766.7 559.7 800 560.3C833.3 561 866.7 565 883.3 567L900 569L900 601L883.3 601C866.7 601 833.3 601 800 601C766.7 601 733.3 601 700 601C666.7 601 633.3 601 600 601C566.7 601 533.3 601 500 601C466.7 601 433.3 601 400 601C366.7 601 333.3 601 300 601C266.7 601 233.3 601 200 601C166.7 601 133.3 601 100 601C66.7 601 33.3 601 16.7 601L0 601Z" fill="#8c4a4a"></path></svg>