<svg id="visual" viewBox="0 0 900 600" width="900" height="600" xmlns="http://www.w3.org/2000/svg" xmlns:xlink="http://www.w3.org/1999/xlink" version="1.1"><path d="M0 480L16.7 465.2C33.3 450.3 66.7 420.7 100 411.7C133.3 402.7 166.7 414.3 200 424.5C233.3 434.7 266.7 443.3 300 443.3C333.3 443.3 366.7 434.7 400 433.5C433.3 432.3 466.7 438.7 500 442.3C533.3 446 566.7 447 600 451C633.3 455 666.7 462 700 459C733.3 456 766.7 443 800 432.5C833.3 422 866.7 414 883.3 410L900 406L900 601L883.3 601C866.7 601 833.3 601 800 601C766.7 601 733.3 601 700 601C666.7 601 633.3 601 600 601C566.7 601 533.3 601 500 601C466.7 601 433.3 601 400 601C366.7 601 333.3 601 300 601C266.7 601 233.3 601 200 601C166.7 601 133.3 601 100 601C66.7 601 33.3 601 16.7 601L0 601Z" fill="#b66f6e"></path><path d="M0 432L16.7 432.3C33.3 432.7 66.7 433.3 100 439.5C133.3 445.7 166.7 457.3 200 468.5C233.3 479.7 266.7 490.3 300 490C333.3 489.7 366.7 478.3 400 478.3C433.3 478.3 466.7 489.7 500 486.5C533.3 483.3 566.7 465.7 600 463.3C633.3 461 666.7 474 700 484C733.3 494 766.7 501 800 491.3C833.3 481.7 866.7 455.3 883.3 442.2L900 429L900 601L883.3 601C866.7 601 833.3 601 800 601C766.7 601 733.3 601 700 601C666.7 601 633.3 601 600 601C566.7 601 533.3 601 500 601C466.7 601 433.3 601 400 601C366.7 601 333.3 601 300 601C266.7 601 233.3 601 200 601C166.7 601 133.3 601 100 601C66.7 601 33.3 601 16.7 601L0 601Z" fill="#ab6565"></path><path d="M0 465L16.7 474.2C33.3 483.3 66.7 501.7 100 504.8C133.3 508 166.7 496 200 488.2C233.3 480.3 266.7 476.7 300 473.7C333.3 470.7 366.7 468.3 400 470.8C433.3 473.3 466.7 480.7 500 486.7C533.3 492.7 566.7 497.3 600 501.3C633.3 505.3 666.7 508.7 700 513.5C733.3 518.3 766.7 524.7 800 518.2C833.3 511.7 866.7 492.3 883.3 482.7L900 473L900 601L883.3 601C866.7 601 833.3 601 800 601C766.7 601 733.3 601 700 601C666.7 601 633.3 601 600 601C566.7 601 533.3 601 500 601C466.7 601 433.3 601 400 601C366.7 601 333.3 601 300 601C266.7 601 233.3 601 200 601C166.7 601 133.3 601 100 601C66.7 601 33.3 601 16.7 601L0 601Z" fill="#a15c5c"></path><path d="M0 524L16.7 524.7C33.3 525.3 66.7 526.7 100 522.7C133.3 518.7 166.7 509.3 200 509.3C233.3 509.3 266.7 518.7 300 528.2C333.3 537.7 366.7 547.3 400 544.3C433.3 541.3 466.7 525.7 500 521.3C533.3 517 566.7 524 600 530.7C633.3 537.3 666.7 543.7 700 548C733.3 552.3 766.7 554.7 800 548.3C833.3 542 866.7 527 883.3 519.5L900 512L900 601L883.3 601C866.7 601 833.3 601 800 601C766.7 601 733.3 601 700 601C666.7 601 633.3 601 600 601C566.7 601 533.3 601 500 601C466.7 601 433.3 601 400 601C366.7 601 333.3 601 300 601C266.7 601 233.3 601 200 601C166.7 601 133.3 601 100 601C66.7 601 33.3 601 16.7 601L0 601Z" fill="#965353"></path><path d="M0 546L16.7 545.2C33.3 544.3 66.7 542.7 100 543.7C133.3 544.7 166.7 548.3 200 550.7C233.3 553 266.7 554 300 556.7C333.3 559.3 366.7 563.7 400 564.5C433.3 565.3 466.7 562.7 500 558.2C533.3 553.7 566.7 547.3 600 549.2C633.3 551 666.7 561 700 560.7C733.3 560.3 766.7 549.7 800 551.2C833.3 552.7 866.7 566.3 883.3 573.2L900 580L900 601L883.3 601C866.7 601 833.3 601 800 601C766.7 601 733.3 601 700 601C666.7 601 633.3 601 600 601C566.7 601 533.3 601 500 601C466.7 601 433.3 601 400 601C366.7 601 333.3 601 300 601C266.7 601 233.3 601 200 601C166.7 601 133.3 601 100 601C66.7 601 33.3 601 16.7 601L0 601Z" fill="#8c4a4a"></path></svg>