<svg id="visual" viewBox="0 0 900 600" width="900" height="600" xmlns="http://www.w3.org/2000/svg" xmlns:xlink="http://www.w3.org/1999/xlink" version="1.1"><path d="M0 285L21.5 297.3C43 309.7 86 334.3 128.8 341.5C171.7 348.7 214.3 338.3 257.2 343.7C300 349 343 370 385.8 379.3C428.7 388.7 471.3 386.3 514.2 368.2C557 350 600 316 642.8 313.5C685.7 311 728.3 340 771.2 360.3C814 380.7 857 392.3 878.5 398.2L900 404L900 0L878.5 0C857 0 814 0 771.2 0C728.3 0 685.7 0 642.8 0C600 0 557 0 514.2 0C471.3 0 428.7 0 385.8 0C343 0 300 0 257.2 0C214.3 0 171.7 0 128.8 0C86 0 43 0 21.5 0L0 0Z" fill="#b66f6e"></path><path d="M0 292L21.5 283C43 274 86 256 128.8 248C171.7 240 214.3 242 257.2 233.3C300 224.7 343 205.3 385.8 194C428.7 182.7 471.3 179.3 514.2 187.8C557 196.3 600 216.7 642.8 239.8C685.7 263 728.3 289 771.2 284.2C814 279.3 857 243.7 878.5 225.8L900 208L900 0L878.5 0C857 0 814 0 771.2 0C728.3 0 685.7 0 642.8 0C600 0 557 0 514.2 0C471.3 0 428.7 0 385.8 0C343 0 300 0 257.2 0C214.3 0 171.7 0 128.8 0C86 0 43 0 21.5 0L0 0Z" fill="#ab6565"></path><path d="M0 242L21.5 230.3C43 218.7 86 195.3 128.8 177C171.7 158.7 214.3 145.3 257.2 160.2C300 175 343 218 385.8 235.2C428.7 252.3 471.3 243.7 514.2 224.8C557 206 600 177 642.8 180.2C685.7 183.3 728.3 218.7 771.2 225C814 231.3 857 208.7 878.5 197.3L900 186L900 0L878.5 0C857 0 814 0 771.2 0C728.3 0 685.7 0 642.8 0C600 0 557 0 514.2 0C471.3 0 428.7 0 385.8 0C343 0 300 0 257.2 0C214.3 0 171.7 0 128.8 0C86 0 43 0 21.5 0L0 0Z" fill="#a15c5c"></path><path d="M0 123L21.5 116.7C43 110.3 86 97.7 128.8 105C171.7 112.3 214.3 139.7 257.2 149.5C300 159.3 343 151.7 385.8 145.5C428.7 139.3 471.3 134.7 514.2 139C557 143.3 600 156.7 642.8 159.3C685.7 162 728.3 154 771.2 149.8C814 145.7 857 145.3 878.5 145.2L900 145L900 0L878.5 0C857 0 814 0 771.2 0C728.3 0 685.7 0 642.8 0C600 0 557 0 514.2 0C471.3 0 428.7 0 385.8 0C343 0 300 0 257.2 0C214.3 0 171.7 0 128.8 0C86 0 43 0 21.5 0L0 0Z" fill="#965353"></path><path d="M0 34L21.5 42C43 50 86 66 128.8 68.8C171.7 71.7 214.3 61.3 257.2 57.3C300 53.3 343 55.7 385.8 55.5C428.7 55.3 471.3 52.7 514.2 52.3C557 52 600 54 642.8 57.7C685.7 61.3 728.3 66.7 771.2 75.7C814 84.7 857 97.3 878.5 103.7L900 110L900 0L878.5 0C857 0 814 0 771.2 0C728.3 0 685.7 0 642.8 0C600 0 557 0 514.2 0C471.3 0 428.7 0 385.8 0C343 0 300 0 257.2 0C214.3 0 171.7 0 128.8 0C86 0 43 0 21.5 0L0 0Z" fill="#8c4a4a"></path></svg>