<svg id="visual" viewBox="0 0 900 600" width="900" height="600" xmlns="http://www.w3.org/2000/svg" xmlns:xlink="http://www.w3.org/1999/xlink" version="1.1"><path d="M0 395L18.8 395.3C37.7 395.7 75.3 396.3 112.8 397.8C150.3 399.3 187.7 401.7 225.2 409C262.7 416.3 300.3 428.7 337.8 437C375.3 445.3 412.7 449.7 450.2 439.7C487.7 429.7 525.3 405.3 562.8 393.2C600.3 381 637.7 381 675.2 379C712.7 377 750.3 373 787.8 368.2C825.3 363.3 862.7 357.7 881.3 354.8L900 352L900 601L881.3 601C862.7 601 825.3 601 787.8 601C750.3 601 712.7 601 675.2 601C637.7 601 600.3 601 562.8 601C525.3 601 487.7 601 450.2 601C412.7 601 375.3 601 337.8 601C300.3 601 262.7 601 225.2 601C187.7 601 150.3 601 112.8 601C75.3 601 37.7 601 18.8 601L0 601Z" fill="#b66f6e"></path><path d="M0 385L18.8 387.5C37.7 390 75.3 395 112.8 406.2C150.3 417.3 187.7 434.7 225.2 432.3C262.7 430 300.3 408 337.8 406.3C375.3 404.7 412.7 423.3 450.2 429C487.7 434.7 525.3 427.3 562.8 434.2C600.3 441 637.7 462 675.2 463C712.7 464 750.3 445 787.8 441.5C825.3 438 862.7 450 881.3 456L900 462L900 601L881.3 601C862.7 601 825.3 601 787.8 601C750.3 601 712.7 601 675.2 601C637.7 601 600.3 601 562.8 601C525.3 601 487.7 601 450.2 601C412.7 601 375.3 601 337.8 601C300.3 601 262.7 601 225.2 601C187.7 601 150.3 601 112.8 601C75.3 601 37.7 601 18.8 601L0 601Z" fill="#ab6565"></path><path d="M0 449L18.8 459.8C37.7 470.7 75.3 492.3 112.8 499.8C150.3 507.3 187.7 500.7 225.2 488.3C262.7 476 300.3 458 337.8 457C375.3 456 412.7 472 450.2 481C487.7 490 525.3 492 562.8 484C600.3 476 637.7 458 675.2 453.5C712.7 449 750.3 458 787.8 461.2C825.3 464.3 862.7 461.7 881.3 460.3L900 459L900 601L881.3 601C862.7 601 825.3 601 787.8 601C750.3 601 712.7 601 675.2 601C637.7 601 600.3 601 562.8 601C525.3 601 487.7 601 450.2 601C412.7 601 375.3 601 337.8 601C300.3 601 262.7 601 225.2 601C187.7 601 150.3 601 112.8 601C75.3 601 37.7 601 18.8 601L0 601Z" fill="#a15c5c"></path><path d="M0 485L18.8 485.7C37.7 486.3 75.3 487.7 112.8 486.7C150.3 485.7 187.7 482.3 225.2 481.7C262.7 481 300.3 483 337.8 485.2C375.3 487.3 412.7 489.7 450.2 494.5C487.7 499.3 525.3 506.7 562.8 505.5C600.3 504.3 637.7 494.7 675.2 493.5C712.7 492.3 750.3 499.7 787.8 504.3C825.3 509 862.7 511 881.3 512L900 513L900 601L881.3 601C862.7 601 825.3 601 787.8 601C750.3 601 712.7 601 675.2 601C637.7 601 600.3 601 562.8 601C525.3 601 487.7 601 450.2 601C412.7 601 375.3 601 337.8 601C300.3 601 262.7 601 225.2 601C187.7 601 150.3 601 112.8 601C75.3 601 37.7 601 18.8 601L0 601Z" fill="#965353"></path><path d="M0 567L18.8 561.5C37.7 556 75.3 545 112.8 539.2C150.3 533.3 187.7 532.7 225.2 537.3C262.7 542 300.3 552 337.8 557C375.3 562 412.7 562 450.2 562.2C487.7 562.3 525.3 562.7 562.8 560C600.3 557.3 637.7 551.7 675.2 549.3C712.7 547 750.3 548 787.8 547C825.3 546 862.7 543 881.3 541.5L900 540L900 601L881.3 601C862.7 601 825.3 601 787.8 601C750.3 601 712.7 601 675.2 601C637.7 601 600.3 601 562.8 601C525.3 601 487.7 601 450.2 601C412.7 601 375.3 601 337.8 601C300.3 601 262.7 601 225.2 601C187.7 601 150.3 601 112.8 601C75.3 601 37.7 601 18.8 601L0 601Z" fill="#8c4a4a"></path></svg>