<svg id="visual" viewBox="0 0 900 600" width="900" height="600" xmlns="http://www.w3.org/2000/svg" xmlns:xlink="http://www.w3.org/1999/xlink" version="1.1"><path d="M0 391L21.5 389.2C43 387.3 86 383.7 128.8 385.5C171.7 387.3 214.3 394.7 257.2 388.3C300 382 343 362 385.8 359.7C428.7 357.3 471.3 372.7 514.2 382C557 391.3 600 394.7 642.8 389.3C685.7 384 728.3 370 771.2 364.2C814 358.3 857 360.7 878.5 361.8L900 363L900 601L878.5 601C857 601 814 601 771.2 601C728.3 601 685.7 601 642.8 601C600 601 557 601 514.2 601C471.3 601 428.7 601 385.8 601C343 601 300 601 257.2 601C214.3 601 171.7 601 128.8 601C86 601 43 601 21.5 601L0 601Z" fill="#b66f6e"></path><path d="M0 483L21.5 467.2C43 451.3 86 419.7 128.8 407.5C171.7 395.3 214.3 402.7 257.2 408C300 413.3 343 416.7 385.8 423.2C428.7 429.7 471.3 439.3 514.2 439.5C557 439.7 600 430.3 642.8 434.8C685.7 439.3 728.3 457.7 771.2 461.3C814 465 857 454 878.5 448.5L900 443L900 601L878.5 601C857 601 814 601 771.2 601C728.3 601 685.7 601 642.8 601C600 601 557 601 514.2 601C471.3 601 428.7 601 385.8 601C343 601 300 601 257.2 601C214.3 601 171.7 601 128.8 601C86 601 43 601 21.5 601L0 601Z" fill="#ab6565"></path><path d="M0 435L21.5 437.7C43 440.3 86 445.7 128.8 453.3C171.7 461 214.3 471 257.2 476.8C300 482.7 343 484.3 385.8 483.7C428.7 483 471.3 480 514.2 479.2C557 478.3 600 479.7 642.8 477.2C685.7 474.7 728.3 468.3 771.2 471.7C814 475 857 488 878.5 494.5L900 501L900 601L878.5 601C857 601 814 601 771.2 601C728.3 601 685.7 601 642.8 601C600 601 557 601 514.2 601C471.3 601 428.7 601 385.8 601C343 601 300 601 257.2 601C214.3 601 171.7 601 128.8 601C86 601 43 601 21.5 601L0 601Z" fill="#a15c5c"></path><path d="M0 538L21.5 532.8C43 527.7 86 517.3 128.8 509.5C171.7 501.7 214.3 496.3 257.2 495.7C300 495 343 499 385.8 497.8C428.7 496.7 471.3 490.3 514.2 490.8C557 491.3 600 498.7 642.8 500.3C685.7 502 728.3 498 771.2 497.7C814 497.3 857 500.7 878.5 502.3L900 504L900 601L878.5 601C857 601 814 601 771.2 601C728.3 601 685.7 601 642.8 601C600 601 557 601 514.2 601C471.3 601 428.7 601 385.8 601C343 601 300 601 257.2 601C214.3 601 171.7 601 128.8 601C86 601 43 601 21.5 601L0 601Z" fill="#965353"></path><path d="M0 575L21.5 568.8C43 562.7 86 550.3 128.8 541.2C171.7 532 214.3 526 257.2 530.5C300 535 343 550 385.8 552.5C428.7 555 471.3 545 514.2 541.3C557 537.7 600 540.3 642.8 544.3C685.7 548.3 728.3 553.7 771.2 559C814 564.3 857 569.7 878.5 572.3L900 575L900 601L878.5 601C857 601 814 601 771.2 601C728.3 601 685.7 601 642.8 601C600 601 557 601 514.2 601C471.3 601 428.7 601 385.8 601C343 601 300 601 257.2 601C214.3 601 171.7 601 128.8 601C86 601 43 601 21.5 601L0 601Z" fill="#8c4a4a"></path></svg>