<svg id="visual" viewBox="0 0 900 600" width="900" height="600" xmlns="http://www.w3.org/2000/svg" xmlns:xlink="http://www.w3.org/1999/xlink" version="1.1"><path d="M0 294L18.8 291C37.7 288 75.3 282 112.8 291.2C150.3 300.3 187.7 324.7 225.2 332.2C262.7 339.7 300.3 330.3 337.8 318C375.3 305.7 412.7 290.3 450.2 292.7C487.7 295 525.3 315 562.8 328.8C600.3 342.7 637.7 350.3 675.2 351.2C712.7 352 750.3 346 787.8 332.2C825.3 318.3 862.7 296.7 881.3 285.8L900 275L900 0L881.3 0C862.7 0 825.3 0 787.8 0C750.3 0 712.7 0 675.2 0C637.7 0 600.3 0 562.8 0C525.3 0 487.7 0 450.2 0C412.7 0 375.3 0 337.8 0C300.3 0 262.7 0 225.2 0C187.7 0 150.3 0 112.8 0C75.3 0 37.7 0 18.8 0L0 0Z" fill="#ac7675"></path><path d="M0 251L18.8 256.2C37.7 261.3 75.3 271.7 112.8 279.7C150.3 287.7 187.7 293.3 225.2 287C262.7 280.7 300.3 262.3 337.8 252.5C375.3 242.7 412.7 241.3 450.2 250C487.7 258.7 525.3 277.3 562.8 280.8C600.3 284.3 637.7 272.7 675.2 260.5C712.7 248.3 750.3 235.7 787.8 232.7C825.3 229.7 862.7 236.3 881.3 239.7L900 243L900 0L881.3 0C862.7 0 825.3 0 787.8 0C750.3 0 712.7 0 675.2 0C637.7 0 600.3 0 562.8 0C525.3 0 487.7 0 450.2 0C412.7 0 375.3 0 337.8 0C300.3 0 262.7 0 225.2 0C187.7 0 150.3 0 112.8 0C75.3 0 37.7 0 18.8 0L0 0Z" fill="#9c605f"></path><path d="M0 231L18.8 222.7C37.7 214.3 75.3 197.7 112.8 194.3C150.3 191 187.7 201 225.2 210.2C262.7 219.3 300.3 227.7 337.8 218.2C375.3 208.7 412.7 181.3 450.2 179.3C487.7 177.3 525.3 200.7 562.8 213.2C600.3 225.7 637.7 227.3 675.2 222C712.7 216.7 750.3 204.3 787.8 198C825.3 191.7 862.7 191.3 881.3 191.2L900 191L900 0L881.3 0C862.7 0 825.3 0 787.8 0C750.3 0 712.7 0 675.2 0C637.7 0 600.3 0 562.8 0C525.3 0 487.7 0 450.2 0C412.7 0 375.3 0 337.8 0C300.3 0 262.7 0 225.2 0C187.7 0 150.3 0 112.8 0C75.3 0 37.7 0 18.8 0L0 0Z" fill="#8c4a4a"></path><path d="M0 154L18.8 145.7C37.7 137.3 75.3 120.7 112.8 111.5C150.3 102.3 187.7 100.7 225.2 105.3C262.7 110 300.3 121 337.8 125.5C375.3 130 412.7 128 450.2 125.8C487.7 123.7 525.3 121.3 562.8 117.2C600.3 113 637.7 107 675.2 112.5C712.7 118 750.3 135 787.8 138.3C825.3 141.7 862.7 131.3 881.3 126.2L900 121L900 0L881.3 0C862.7 0 825.3 0 787.8 0C750.3 0 712.7 0 675.2 0C637.7 0 600.3 0 562.8 0C525.3 0 487.7 0 450.2 0C412.7 0 375.3 0 337.8 0C300.3 0 262.7 0 225.2 0C187.7 0 150.3 0 112.8 0C75.3 0 37.7 0 18.8 0L0 0Z" fill="#794040"></path><path d="M0 49L18.8 48.5C37.7 48 75.3 47 112.8 51C150.3 55 187.7 64 225.2 68.8C262.7 73.7 300.3 74.3 337.8 69.2C375.3 64 412.7 53 450.2 47.8C487.7 42.7 525.3 43.3 562.8 48.8C600.3 54.3 637.7 64.7 675.2 72C712.7 79.3 750.3 83.7 787.8 79.2C825.3 74.7 862.7 61.3 881.3 54.7L900 48L900 0L881.3 0C862.7 0 825.3 0 787.8 0C750.3 0 712.7 0 675.2 0C637.7 0 600.3 0 562.8 0C525.3 0 487.7 0 450.2 0C412.7 0 375.3 0 337.8 0C300.3 0 262.7 0 225.2 0C187.7 0 150.3 0 112.8 0C75.3 0 37.7 0 18.8 0L0 0Z" fill="#673737"></path></svg>