<svg id="visual" viewBox="0 0 900 600" width="900" height="600" xmlns="http://www.w3.org/2000/svg" xmlns:xlink="http://www.w3.org/1999/xlink" version="1.1"><rect x="0" y="0" width="900" height="600" fill="#1D2625"></rect><path d="M0 444L16.7 439.3C33.3 434.7 66.7 425.3 100 424C133.3 422.7 166.7 429.3 200 436.3C233.3 443.3 266.7 450.7 300 448.3C333.3 446 366.7 434 400 430.7C433.3 427.3 466.7 432.7 500 436.8C533.3 441 566.7 444 600 439.2C633.3 434.3 666.7 421.7 700 421C733.3 420.3 766.7 431.7 800 436.8C833.3 442 866.7 441 883.3 440.5L900 440L900 601L883.3 601C866.7 601 833.3 601 800 601C766.7 601 733.3 601 700 601C666.7 601 633.3 601 600 601C566.7 601 533.3 601 500 601C466.7 601 433.3 601 400 601C366.7 601 333.3 601 300 601C266.7 601 233.3 601 200 601C166.7 601 133.3 601 100 601C66.7 601 33.3 601 16.7 601L0 601Z" fill="#b66f6e"></path><path d="M0 477L16.7 474C33.3 471 66.7 465 100 466.7C133.3 468.3 166.7 477.7 200 477.5C233.3 477.3 266.7 467.7 300 466.2C333.3 464.7 366.7 471.3 400 473.3C433.3 475.3 466.7 472.7 500 466.7C533.3 460.7 566.7 451.3 600 445.7C633.3 440 666.7 438 700 439.5C733.3 441 766.7 446 800 451.7C833.3 457.3 866.7 463.7 883.3 466.8L900 470L900 601L883.3 601C866.7 601 833.3 601 800 601C766.7 601 733.3 601 700 601C666.7 601 633.3 601 600 601C566.7 601 533.3 601 500 601C466.7 601 433.3 601 400 601C366.7 601 333.3 601 300 601C266.7 601 233.3 601 200 601C166.7 601 133.3 601 100 601C66.7 601 33.3 601 16.7 601L0 601Z" fill="#ab6565"></path><path d="M0 517L16.7 516C33.3 515 66.7 513 100 505.3C133.3 497.7 166.7 484.3 200 479.3C233.3 474.3 266.7 477.7 300 480C333.3 482.3 366.7 483.7 400 485.7C433.3 487.7 466.7 490.3 500 492.7C533.3 495 566.7 497 600 500.5C633.3 504 666.7 509 700 513.3C733.3 517.7 766.7 521.3 800 515.2C833.3 509 866.7 493 883.3 485L900 477L900 601L883.3 601C866.7 601 833.3 601 800 601C766.7 601 733.3 601 700 601C666.7 601 633.3 601 600 601C566.7 601 533.3 601 500 601C466.7 601 433.3 601 400 601C366.7 601 333.3 601 300 601C266.7 601 233.3 601 200 601C166.7 601 133.3 601 100 601C66.7 601 33.3 601 16.7 601L0 601Z" fill="#a15c5c"></path><path d="M0 528L16.7 527.2C33.3 526.3 66.7 524.7 100 527.7C133.3 530.7 166.7 538.3 200 540.2C233.3 542 266.7 538 300 538.7C333.3 539.3 366.7 544.7 400 541.2C433.3 537.7 466.7 525.3 500 521.7C533.3 518 566.7 523 600 526.7C633.3 530.3 666.7 532.7 700 530C733.3 527.3 766.7 519.7 800 517C833.3 514.3 866.7 516.7 883.3 517.8L900 519L900 601L883.3 601C866.7 601 833.3 601 800 601C766.7 601 733.3 601 700 601C666.7 601 633.3 601 600 601C566.7 601 533.3 601 500 601C466.7 601 433.3 601 400 601C366.7 601 333.3 601 300 601C266.7 601 233.3 601 200 601C166.7 601 133.3 601 100 601C66.7 601 33.3 601 16.7 601L0 601Z" fill="#965353"></path><path d="M0 570L16.7 567.2C33.3 564.3 66.7 558.7 100 555.8C133.3 553 166.7 553 200 553.5C233.3 554 266.7 555 300 558.2C333.3 561.3 366.7 566.7 400 568.5C433.3 570.3 466.7 568.7 500 569.2C533.3 569.7 566.7 572.3 600 571.8C633.3 571.3 666.7 567.7 700 563.2C733.3 558.7 766.7 553.3 800 552.2C833.3 551 866.7 554 883.3 555.5L900 557L900 601L883.3 601C866.7 601 833.3 601 800 601C766.7 601 733.3 601 700 601C666.7 601 633.3 601 600 601C566.7 601 533.3 601 500 601C466.7 601 433.3 601 400 601C366.7 601 333.3 601 300 601C266.7 601 233.3 601 200 601C166.7 601 133.3 601 100 601C66.7 601 33.3 601 16.7 601L0 601Z" fill="#8c4a4a"></path></svg>