<svg id="visual" viewBox="0 0 960 540" width="960" height="540" xmlns="http://www.w3.org/2000/svg" xmlns:xlink="http://www.w3.org/1999/xlink" version="1.1"><rect x="0" y="0" width="960" height="540" fill="#001220"></rect><path d="M0 279L22.8 282.7C45.7 286.3 91.3 293.7 137 298.3C182.7 303 228.3 305 274 307C319.7 309 365.3 311 411.2 308.3C457 305.7 503 298.3 548.8 289.3C594.7 280.3 640.3 269.7 686 261.2C731.7 252.7 777.3 246.3 823 261.8C868.7 277.3 914.3 314.7 937.2 333.3L960 352L960 0L937.2 0C914.3 0 868.7 0 823 0C777.3 0 731.7 0 686 0C640.3 0 594.7 0 548.8 0C503 0 457 0 411.2 0C365.3 0 319.7 0 274 0C228.3 0 182.7 0 137 0C91.3 0 45.7 0 22.8 0L0 0Z" fill="#a23931"></path><path d="M0 253L22.8 249C45.7 245 91.3 237 137 230.3C182.7 223.7 228.3 218.3 274 225.8C319.7 233.3 365.3 253.7 411.2 252.5C457 251.3 503 228.7 548.8 212C594.7 195.3 640.3 184.7 686 177.5C731.7 170.3 777.3 166.7 823 178.7C868.7 190.7 914.3 218.3 937.2 232.2L960 246L960 0L937.2 0C914.3 0 868.7 0 823 0C777.3 0 731.7 0 686 0C640.3 0 594.7 0 548.8 0C503 0 457 0 411.2 0C365.3 0 319.7 0 274 0C228.3 0 182.7 0 137 0C91.3 0 45.7 0 22.8 0L0 0Z" fill="#c04a40"></path><path d="M0 132L22.8 131.8C45.7 131.7 91.3 131.3 137 136.7C182.7 142 228.3 153 274 164.5C319.7 176 365.3 188 411.2 182.7C457 177.3 503 154.7 548.8 154.5C594.7 154.3 640.3 176.7 686 187.2C731.7 197.7 777.3 196.3 823 193.3C868.7 190.3 914.3 185.7 937.2 183.3L960 181L960 0L937.2 0C914.3 0 868.7 0 823 0C777.3 0 731.7 0 686 0C640.3 0 594.7 0 548.8 0C503 0 457 0 411.2 0C365.3 0 319.7 0 274 0C228.3 0 182.7 0 137 0C91.3 0 45.7 0 22.8 0L0 0Z" fill="#df5c50"></path><path d="M0 83L22.8 78C45.7 73 91.3 63 137 59.8C182.7 56.7 228.3 60.3 274 64.5C319.7 68.7 365.3 73.3 411.2 78C457 82.7 503 87.3 548.8 87.3C594.7 87.3 640.3 82.7 686 83.8C731.7 85 777.3 92 823 91.8C868.7 91.7 914.3 84.3 937.2 80.7L960 77L960 0L937.2 0C914.3 0 868.7 0 823 0C777.3 0 731.7 0 686 0C640.3 0 594.7 0 548.8 0C503 0 457 0 411.2 0C365.3 0 319.7 0 274 0C228.3 0 182.7 0 137 0C91.3 0 45.7 0 22.8 0L0 0Z" fill="#ff6f61"></path></svg>