<svg id="visual" viewBox="0 0 900 600" width="900" height="600" xmlns="http://www.w3.org/2000/svg" xmlns:xlink="http://www.w3.org/1999/xlink" version="1.1"><path d="M0 329L18.8 319.7C37.7 310.3 75.3 291.7 112.8 286.7C150.3 281.7 187.7 290.3 225.2 287.8C262.7 285.3 300.3 271.7 337.8 284C375.3 296.3 412.7 334.7 450.2 334.3C487.7 334 525.3 295 562.8 275.5C600.3 256 637.7 256 675.2 256.5C712.7 257 750.3 258 787.8 263.8C825.3 269.7 862.7 280.3 881.3 285.7L900 291L900 601L881.3 601C862.7 601 825.3 601 787.8 601C750.3 601 712.7 601 675.2 601C637.7 601 600.3 601 562.8 601C525.3 601 487.7 601 450.2 601C412.7 601 375.3 601 337.8 601C300.3 601 262.7 601 225.2 601C187.7 601 150.3 601 112.8 601C75.3 601 37.7 601 18.8 601L0 601Z" fill="#b66f6e"></path><path d="M0 366L18.8 366.3C37.7 366.7 75.3 367.3 112.8 378.8C150.3 390.3 187.7 412.7 225.2 423C262.7 433.3 300.3 431.7 337.8 428C375.3 424.3 412.7 418.7 450.2 403.7C487.7 388.7 525.3 364.3 562.8 356.5C600.3 348.7 637.7 357.3 675.2 356.5C712.7 355.7 750.3 345.3 787.8 356.5C825.3 367.7 862.7 400.3 881.3 416.7L900 433L900 601L881.3 601C862.7 601 825.3 601 787.8 601C750.3 601 712.7 601 675.2 601C637.7 601 600.3 601 562.8 601C525.3 601 487.7 601 450.2 601C412.7 601 375.3 601 337.8 601C300.3 601 262.7 601 225.2 601C187.7 601 150.3 601 112.8 601C75.3 601 37.7 601 18.8 601L0 601Z" fill="#ab6565"></path><path d="M0 380L18.8 386C37.7 392 75.3 404 112.8 401.3C150.3 398.7 187.7 381.3 225.2 389.5C262.7 397.7 300.3 431.3 337.8 437.8C375.3 444.3 412.7 423.7 450.2 414.2C487.7 404.7 525.3 406.3 562.8 403.2C600.3 400 637.7 392 675.2 392.2C712.7 392.3 750.3 400.7 787.8 412.8C825.3 425 862.7 441 881.3 449L900 457L900 601L881.3 601C862.7 601 825.3 601 787.8 601C750.3 601 712.7 601 675.2 601C637.7 601 600.3 601 562.8 601C525.3 601 487.7 601 450.2 601C412.7 601 375.3 601 337.8 601C300.3 601 262.7 601 225.2 601C187.7 601 150.3 601 112.8 601C75.3 601 37.7 601 18.8 601L0 601Z" fill="#a15c5c"></path><path d="M0 489L18.8 488.7C37.7 488.3 75.3 487.7 112.8 480.3C150.3 473 187.7 459 225.2 461.7C262.7 464.3 300.3 483.7 337.8 483.8C375.3 484 412.7 465 450.2 455.2C487.7 445.3 525.3 444.7 562.8 457.7C600.3 470.7 637.7 497.3 675.2 503C712.7 508.7 750.3 493.3 787.8 485.8C825.3 478.3 862.7 478.7 881.3 478.8L900 479L900 601L881.3 601C862.7 601 825.3 601 787.8 601C750.3 601 712.7 601 675.2 601C637.7 601 600.3 601 562.8 601C525.3 601 487.7 601 450.2 601C412.7 601 375.3 601 337.8 601C300.3 601 262.7 601 225.2 601C187.7 601 150.3 601 112.8 601C75.3 601 37.7 601 18.8 601L0 601Z" fill="#965353"></path><path d="M0 505L18.8 506C37.7 507 75.3 509 112.8 514.5C150.3 520 187.7 529 225.2 531.3C262.7 533.7 300.3 529.3 337.8 522.2C375.3 515 412.7 505 450.2 506.8C487.7 508.7 525.3 522.3 562.8 533.3C600.3 544.3 637.7 552.7 675.2 554.5C712.7 556.3 750.3 551.7 787.8 539.7C825.3 527.7 862.7 508.3 881.3 498.7L900 489L900 601L881.3 601C862.7 601 825.3 601 787.8 601C750.3 601 712.7 601 675.2 601C637.7 601 600.3 601 562.8 601C525.3 601 487.7 601 450.2 601C412.7 601 375.3 601 337.8 601C300.3 601 262.7 601 225.2 601C187.7 601 150.3 601 112.8 601C75.3 601 37.7 601 18.8 601L0 601Z" fill="#8c4a4a"></path></svg>