<svg id="visual" viewBox="0 0 900 600" width="900" height="600" xmlns="http://www.w3.org/2000/svg" xmlns:xlink="http://www.w3.org/1999/xlink" version="1.1"><rect x="0" y="0" width="900" height="600" fill="#1D2625"></rect><path d="M0 357L21.5 363.8C43 370.7 86 384.3 128.8 376.3C171.7 368.3 214.3 338.7 257.2 337.7C300 336.7 343 364.3 385.8 382.3C428.7 400.3 471.3 408.7 514.2 396C557 383.3 600 349.7 642.8 346.2C685.7 342.7 728.3 369.3 771.2 376C814 382.7 857 369.3 878.5 362.7L900 356L900 601L878.5 601C857 601 814 601 771.2 601C728.3 601 685.7 601 642.8 601C600 601 557 601 514.2 601C471.3 601 428.7 601 385.8 601C343 601 300 601 257.2 601C214.3 601 171.7 601 128.8 601C86 601 43 601 21.5 601L0 601Z" fill="#c47c7b"></path><path d="M0 441L21.5 436.2C43 431.3 86 421.7 128.8 411C171.7 400.3 214.3 388.7 257.2 379.7C300 370.7 343 364.3 385.8 362.5C428.7 360.7 471.3 363.3 514.2 373.2C557 383 600 400 642.8 407.3C685.7 414.7 728.3 412.3 771.2 412C814 411.7 857 413.3 878.5 414.2L900 415L900 601L878.5 601C857 601 814 601 771.2 601C728.3 601 685.7 601 642.8 601C600 601 557 601 514.2 601C471.3 601 428.7 601 385.8 601C343 601 300 601 257.2 601C214.3 601 171.7 601 128.8 601C86 601 43 601 21.5 601L0 601Z" fill="#b66f6e"></path><path d="M0 456L21.5 447.8C43 439.7 86 423.3 128.8 423.8C171.7 424.3 214.3 441.7 257.2 447.8C300 454 343 449 385.8 448.2C428.7 447.3 471.3 450.7 514.2 451.5C557 452.3 600 450.7 642.8 448.7C685.7 446.7 728.3 444.3 771.2 449.2C814 454 857 466 878.5 472L900 478L900 601L878.5 601C857 601 814 601 771.2 601C728.3 601 685.7 601 642.8 601C600 601 557 601 514.2 601C471.3 601 428.7 601 385.8 601C343 601 300 601 257.2 601C214.3 601 171.7 601 128.8 601C86 601 43 601 21.5 601L0 601Z" fill="#a86362"></path><path d="M0 529L21.5 524.8C43 520.7 86 512.3 128.8 504C171.7 495.7 214.3 487.3 257.2 480.3C300 473.3 343 467.7 385.8 474.5C428.7 481.3 471.3 500.7 514.2 511C557 521.3 600 522.7 642.8 516C685.7 509.3 728.3 494.7 771.2 492.8C814 491 857 502 878.5 507.5L900 513L900 601L878.5 601C857 601 814 601 771.2 601C728.3 601 685.7 601 642.8 601C600 601 557 601 514.2 601C471.3 601 428.7 601 385.8 601C343 601 300 601 257.2 601C214.3 601 171.7 601 128.8 601C86 601 43 601 21.5 601L0 601Z" fill="#9a5656"></path><path d="M0 540L21.5 540.7C43 541.3 86 542.7 128.8 544.8C171.7 547 214.3 550 257.2 552.8C300 555.7 343 558.3 385.8 551.3C428.7 544.3 471.3 527.7 514.2 526C557 524.3 600 537.7 642.8 547.2C685.7 556.7 728.3 562.3 771.2 561.5C814 560.7 857 553.3 878.5 549.7L900 546L900 601L878.5 601C857 601 814 601 771.2 601C728.3 601 685.7 601 642.8 601C600 601 557 601 514.2 601C471.3 601 428.7 601 385.8 601C343 601 300 601 257.2 601C214.3 601 171.7 601 128.8 601C86 601 43 601 21.5 601L0 601Z" fill="#8c4a4a"></path></svg>