<svg id="visual" viewBox="0 0 900 600" width="900" height="600" xmlns="http://www.w3.org/2000/svg" xmlns:xlink="http://www.w3.org/1999/xlink" version="1.1"><rect x="0" y="0" width="900" height="600" fill="#1D2625"></rect><path d="M0 404L12.5 406.7C25 409.3 50 414.7 75 425C100 435.3 125 450.7 150 455.3C175 460 200 454 225 444C250 434 275 420 300 424.5C325 429 350 452 375 460C400 468 425 461 450 455.2C475 449.3 500 444.7 525 447.8C550 451 575 462 600 464.2C625 466.3 650 459.7 675 459.5C700 459.3 725 465.7 750 459.7C775 453.7 800 435.3 825 430C850 424.7 875 432.3 887.5 436.2L900 440L900 601L887.5 601C875 601 850 601 825 601C800 601 775 601 750 601C725 601 700 601 675 601C650 601 625 601 600 601C575 601 550 601 525 601C500 601 475 601 450 601C425 601 400 601 375 601C350 601 325 601 300 601C275 601 250 601 225 601C200 601 175 601 150 601C125 601 100 601 75 601C50 601 25 601 12.5 601L0 601Z" fill="#b66f6e"></path><path d="M0 494L12.5 489C25 484 50 474 75 472C100 470 125 476 150 481.8C175 487.7 200 493.3 225 493.8C250 494.3 275 489.7 300 487.2C325 484.7 350 484.3 375 482.3C400 480.3 425 476.7 450 479.5C475 482.3 500 491.7 525 487.8C550 484 575 467 600 463.7C625 460.3 650 470.7 675 477.7C700 484.7 725 488.3 750 491.7C775 495 800 498 825 494.8C850 491.7 875 482.3 887.5 477.7L900 473L900 601L887.5 601C875 601 850 601 825 601C800 601 775 601 750 601C725 601 700 601 675 601C650 601 625 601 600 601C575 601 550 601 525 601C500 601 475 601 450 601C425 601 400 601 375 601C350 601 325 601 300 601C275 601 250 601 225 601C200 601 175 601 150 601C125 601 100 601 75 601C50 601 25 601 12.5 601L0 601Z" fill="#ab6565"></path><path d="M0 481L12.5 486C25 491 50 501 75 502.8C100 504.7 125 498.3 150 497.7C175 497 200 502 225 500.5C250 499 275 491 300 493.2C325 495.3 350 507.7 375 508.2C400 508.7 425 497.3 450 497.7C475 498 500 510 525 515.8C550 521.7 575 521.3 600 515C625 508.7 650 496.3 675 493.7C700 491 725 498 750 502.2C775 506.3 800 507.7 825 504C850 500.3 875 491.7 887.5 487.3L900 483L900 601L887.5 601C875 601 850 601 825 601C800 601 775 601 750 601C725 601 700 601 675 601C650 601 625 601 600 601C575 601 550 601 525 601C500 601 475 601 450 601C425 601 400 601 375 601C350 601 325 601 300 601C275 601 250 601 225 601C200 601 175 601 150 601C125 601 100 601 75 601C50 601 25 601 12.5 601L0 601Z" fill="#a15c5c"></path><path d="M0 542L12.5 536.2C25 530.3 50 518.7 75 515C100 511.3 125 515.7 150 519.8C175 524 200 528 225 529.5C250 531 275 530 300 533.3C325 536.7 350 544.3 375 540.5C400 536.7 425 521.3 450 514.7C475 508 500 510 525 517.8C550 525.7 575 539.3 600 543.7C625 548 650 543 675 535.3C700 527.7 725 517.3 750 514.7C775 512 800 517 825 518.3C850 519.7 875 517.3 887.5 516.2L900 515L900 601L887.5 601C875 601 850 601 825 601C800 601 775 601 750 601C725 601 700 601 675 601C650 601 625 601 600 601C575 601 550 601 525 601C500 601 475 601 450 601C425 601 400 601 375 601C350 601 325 601 300 601C275 601 250 601 225 601C200 601 175 601 150 601C125 601 100 601 75 601C50 601 25 601 12.5 601L0 601Z" fill="#965353"></path><path d="M0 570L12.5 566.3C25 562.7 50 555.3 75 550.7C100 546 125 544 150 548.8C175 553.7 200 565.3 225 565.3C250 565.3 275 553.7 300 551.7C325 549.7 350 557.3 375 558.8C400 560.3 425 555.7 450 554.8C475 554 500 557 525 560.3C550 563.7 575 567.3 600 564.2C625 561 650 551 675 551.5C700 552 725 563 750 562.8C775 562.7 800 551.3 825 547.3C850 543.3 875 546.7 887.5 548.3L900 550L900 601L887.5 601C875 601 850 601 825 601C800 601 775 601 750 601C725 601 700 601 675 601C650 601 625 601 600 601C575 601 550 601 525 601C500 601 475 601 450 601C425 601 400 601 375 601C350 601 325 601 300 601C275 601 250 601 225 601C200 601 175 601 150 601C125 601 100 601 75 601C50 601 25 601 12.5 601L0 601Z" fill="#8c4a4a"></path></svg>