<svg id="visual" viewBox="0 0 900 600" width="900" height="600" xmlns="http://www.w3.org/2000/svg" xmlns:xlink="http://www.w3.org/1999/xlink" version="1.1"><path d="M0 326L16.7 312.5C33.3 299 66.7 272 100 279.7C133.3 287.3 166.7 329.7 200 340.7C233.3 351.7 266.7 331.3 300 324.5C333.3 317.7 366.7 324.3 400 334.2C433.3 344 466.7 357 500 352.8C533.3 348.7 566.7 327.3 600 307.2C633.3 287 666.7 268 700 282.5C733.3 297 766.7 345 800 347C833.3 349 866.7 305 883.3 283L900 261L900 601L883.3 601C866.7 601 833.3 601 800 601C766.7 601 733.3 601 700 601C666.7 601 633.3 601 600 601C566.7 601 533.3 601 500 601C466.7 601 433.3 601 400 601C366.7 601 333.3 601 300 601C266.7 601 233.3 601 200 601C166.7 601 133.3 601 100 601C66.7 601 33.3 601 16.7 601L0 601Z" fill="#b66f6e"></path><path d="M0 323L16.7 340.8C33.3 358.7 66.7 394.3 100 407.3C133.3 420.3 166.7 410.7 200 389.3C233.3 368 266.7 335 300 319.7C333.3 304.3 366.7 306.7 400 322C433.3 337.3 466.7 365.7 500 364.5C533.3 363.3 566.7 332.7 600 334C633.3 335.3 666.7 368.7 700 381.3C733.3 394 766.7 386 800 384.8C833.3 383.7 866.7 389.3 883.3 392.2L900 395L900 601L883.3 601C866.7 601 833.3 601 800 601C766.7 601 733.3 601 700 601C666.7 601 633.3 601 600 601C566.7 601 533.3 601 500 601C466.7 601 433.3 601 400 601C366.7 601 333.3 601 300 601C266.7 601 233.3 601 200 601C166.7 601 133.3 601 100 601C66.7 601 33.3 601 16.7 601L0 601Z" fill="#ab6565"></path><path d="M0 474L16.7 468.3C33.3 462.7 66.7 451.3 100 434C133.3 416.7 166.7 393.3 200 400.3C233.3 407.3 266.7 444.7 300 449.8C333.3 455 366.7 428 400 426.8C433.3 425.7 466.7 450.3 500 447.3C533.3 444.3 566.7 413.7 600 406.5C633.3 399.3 666.7 415.7 700 412.5C733.3 409.3 766.7 386.7 800 378.2C833.3 369.7 866.7 375.3 883.3 378.2L900 381L900 601L883.3 601C866.7 601 833.3 601 800 601C766.7 601 733.3 601 700 601C666.7 601 633.3 601 600 601C566.7 601 533.3 601 500 601C466.7 601 433.3 601 400 601C366.7 601 333.3 601 300 601C266.7 601 233.3 601 200 601C166.7 601 133.3 601 100 601C66.7 601 33.3 601 16.7 601L0 601Z" fill="#a15c5c"></path><path d="M0 460L16.7 469C33.3 478 66.7 496 100 490.7C133.3 485.3 166.7 456.7 200 449.2C233.3 441.7 266.7 455.3 300 468.3C333.3 481.3 366.7 493.7 400 487.2C433.3 480.7 466.7 455.3 500 455.5C533.3 455.7 566.7 481.3 600 494.7C633.3 508 666.7 509 700 497.2C733.3 485.3 766.7 460.7 800 458.7C833.3 456.7 866.7 477.3 883.3 487.7L900 498L900 601L883.3 601C866.7 601 833.3 601 800 601C766.7 601 733.3 601 700 601C666.7 601 633.3 601 600 601C566.7 601 533.3 601 500 601C466.7 601 433.3 601 400 601C366.7 601 333.3 601 300 601C266.7 601 233.3 601 200 601C166.7 601 133.3 601 100 601C66.7 601 33.3 601 16.7 601L0 601Z" fill="#965353"></path><path d="M0 522L16.7 524C33.3 526 66.7 530 100 526.3C133.3 522.7 166.7 511.3 200 511.2C233.3 511 266.7 522 300 530.3C333.3 538.7 366.7 544.3 400 544.7C433.3 545 466.7 540 500 533.8C533.3 527.7 566.7 520.3 600 525.3C633.3 530.3 666.7 547.7 700 546.8C733.3 546 766.7 527 800 519.5C833.3 512 866.7 516 883.3 518L900 520L900 601L883.3 601C866.7 601 833.3 601 800 601C766.7 601 733.3 601 700 601C666.7 601 633.3 601 600 601C566.7 601 533.3 601 500 601C466.7 601 433.3 601 400 601C366.7 601 333.3 601 300 601C266.7 601 233.3 601 200 601C166.7 601 133.3 601 100 601C66.7 601 33.3 601 16.7 601L0 601Z" fill="#8c4a4a"></path></svg>