<svg id="visual" viewBox="0 0 900 600" width="900" height="600" xmlns="http://www.w3.org/2000/svg" xmlns:xlink="http://www.w3.org/1999/xlink" version="1.1"><rect x="0" y="0" width="900" height="600" fill="#1D2625"></rect><path d="M0 373L21.5 376.5C43 380 86 387 128.8 383.8C171.7 380.7 214.3 367.3 257.2 378.7C300 390 343 426 385.8 430.3C428.7 434.7 471.3 407.3 514.2 390.5C557 373.7 600 367.3 642.8 376.7C685.7 386 728.3 411 771.2 421.3C814 431.7 857 427.3 878.5 425.2L900 423L900 0L878.5 0C857 0 814 0 771.2 0C728.3 0 685.7 0 642.8 0C600 0 557 0 514.2 0C471.3 0 428.7 0 385.8 0C343 0 300 0 257.2 0C214.3 0 171.7 0 128.8 0C86 0 43 0 21.5 0L0 0Z" fill="#b66f6e"></path><path d="M0 208L21.5 236.7C43 265.3 86 322.7 128.8 344.5C171.7 366.3 214.3 352.7 257.2 343C300 333.3 343 327.7 385.8 316C428.7 304.3 471.3 286.7 514.2 286.2C557 285.7 600 302.3 642.8 294.3C685.7 286.3 728.3 253.7 771.2 247.2C814 240.7 857 260.3 878.5 270.2L900 280L900 0L878.5 0C857 0 814 0 771.2 0C728.3 0 685.7 0 642.8 0C600 0 557 0 514.2 0C471.3 0 428.7 0 385.8 0C343 0 300 0 257.2 0C214.3 0 171.7 0 128.8 0C86 0 43 0 21.5 0L0 0Z" fill="#ab6565"></path><path d="M0 295L21.5 290C43 285 86 275 128.8 261.2C171.7 247.3 214.3 229.7 257.2 219.2C300 208.7 343 205.3 385.8 206.3C428.7 207.3 471.3 212.7 514.2 214.2C557 215.7 600 213.3 642.8 217.8C685.7 222.3 728.3 233.7 771.2 227.7C814 221.7 857 198.3 878.5 186.7L900 175L900 0L878.5 0C857 0 814 0 771.2 0C728.3 0 685.7 0 642.8 0C600 0 557 0 514.2 0C471.3 0 428.7 0 385.8 0C343 0 300 0 257.2 0C214.3 0 171.7 0 128.8 0C86 0 43 0 21.5 0L0 0Z" fill="#a15c5c"></path><path d="M0 108L21.5 117.3C43 126.7 86 145.3 128.8 159.5C171.7 173.7 214.3 183.3 257.2 184.5C300 185.7 343 178.3 385.8 180.3C428.7 182.3 471.3 193.7 514.2 192.8C557 192 600 179 642.8 176.2C685.7 173.3 728.3 180.7 771.2 181.2C814 181.7 857 175.3 878.5 172.2L900 169L900 0L878.5 0C857 0 814 0 771.2 0C728.3 0 685.7 0 642.8 0C600 0 557 0 514.2 0C471.3 0 428.7 0 385.8 0C343 0 300 0 257.2 0C214.3 0 171.7 0 128.8 0C86 0 43 0 21.5 0L0 0Z" fill="#965353"></path><path d="M0 43L21.5 54C43 65 86 87 128.8 103.5C171.7 120 214.3 131 257.2 122.8C300 114.7 343 87.3 385.8 82.7C428.7 78 471.3 96 514.2 102.7C557 109.3 600 104.7 642.8 97.7C685.7 90.7 728.3 81.3 771.2 71.7C814 62 857 52 878.5 47L900 42L900 0L878.5 0C857 0 814 0 771.2 0C728.3 0 685.7 0 642.8 0C600 0 557 0 514.2 0C471.3 0 428.7 0 385.8 0C343 0 300 0 257.2 0C214.3 0 171.7 0 128.8 0C86 0 43 0 21.5 0L0 0Z" fill="#8c4a4a"></path></svg>