<svg id="visual" viewBox="0 0 900 600" width="900" height="600" xmlns="http://www.w3.org/2000/svg" xmlns:xlink="http://www.w3.org/1999/xlink" version="1.1"><path d="M0 416L21.5 409.2C43 402.3 86 388.7 128.8 375.8C171.7 363 214.3 351 257.2 364.7C300 378.3 343 417.7 385.8 420C428.7 422.3 471.3 387.7 514.2 387.3C557 387 600 421 642.8 418.8C685.7 416.7 728.3 378.3 771.2 359.2C814 340 857 340 878.5 340L900 340L900 601L878.5 601C857 601 814 601 771.2 601C728.3 601 685.7 601 642.8 601C600 601 557 601 514.2 601C471.3 601 428.7 601 385.8 601C343 601 300 601 257.2 601C214.3 601 171.7 601 128.8 601C86 601 43 601 21.5 601L0 601Z" fill="#b66f6e"></path><path d="M0 482L21.5 481.2C43 480.3 86 478.7 128.8 475.5C171.7 472.3 214.3 467.7 257.2 461.2C300 454.7 343 446.3 385.8 435.8C428.7 425.3 471.3 412.7 514.2 406.2C557 399.7 600 399.3 642.8 413.7C685.7 428 728.3 457 771.2 471.7C814 486.3 857 486.7 878.5 486.8L900 487L900 601L878.5 601C857 601 814 601 771.2 601C728.3 601 685.7 601 642.8 601C600 601 557 601 514.2 601C471.3 601 428.7 601 385.8 601C343 601 300 601 257.2 601C214.3 601 171.7 601 128.8 601C86 601 43 601 21.5 601L0 601Z" fill="#ab6565"></path><path d="M0 463L21.5 464.7C43 466.3 86 469.7 128.8 465.5C171.7 461.3 214.3 449.7 257.2 449.3C300 449 343 460 385.8 473.3C428.7 486.7 471.3 502.3 514.2 508C557 513.7 600 509.3 642.8 499.3C685.7 489.3 728.3 473.7 771.2 473C814 472.3 857 486.7 878.5 493.8L900 501L900 601L878.5 601C857 601 814 601 771.2 601C728.3 601 685.7 601 642.8 601C600 601 557 601 514.2 601C471.3 601 428.7 601 385.8 601C343 601 300 601 257.2 601C214.3 601 171.7 601 128.8 601C86 601 43 601 21.5 601L0 601Z" fill="#a15c5c"></path><path d="M0 530L21.5 525.3C43 520.7 86 511.3 128.8 503.8C171.7 496.3 214.3 490.7 257.2 486.2C300 481.7 343 478.3 385.8 482.2C428.7 486 471.3 497 514.2 507.8C557 518.7 600 529.3 642.8 534C685.7 538.7 728.3 537.3 771.2 533C814 528.7 857 521.3 878.5 517.7L900 514L900 601L878.5 601C857 601 814 601 771.2 601C728.3 601 685.7 601 642.8 601C600 601 557 601 514.2 601C471.3 601 428.7 601 385.8 601C343 601 300 601 257.2 601C214.3 601 171.7 601 128.8 601C86 601 43 601 21.5 601L0 601Z" fill="#965353"></path><path d="M0 531L21.5 530.2C43 529.3 86 527.7 128.8 533C171.7 538.3 214.3 550.7 257.2 556.2C300 561.7 343 560.3 385.8 557.3C428.7 554.3 471.3 549.7 514.2 544.5C557 539.3 600 533.7 642.8 531.3C685.7 529 728.3 530 771.2 532.5C814 535 857 539 878.5 541L900 543L900 601L878.5 601C857 601 814 601 771.2 601C728.3 601 685.7 601 642.8 601C600 601 557 601 514.2 601C471.3 601 428.7 601 385.8 601C343 601 300 601 257.2 601C214.3 601 171.7 601 128.8 601C86 601 43 601 21.5 601L0 601Z" fill="#8c4a4a"></path></svg>