<svg id="visual" viewBox="0 0 900 600" width="900" height="600" xmlns="http://www.w3.org/2000/svg" xmlns:xlink="http://www.w3.org/1999/xlink" version="1.1"><rect x="0" y="0" width="900" height="600" fill="#1D2625"></rect><path d="M0 399L25 392.8C50 386.7 100 374.3 150 369.3C200 364.3 250 366.7 300 378.8C350 391 400 413 450 410.5C500 408 550 381 600 368C650 355 700 356 750 361C800 366 850 375 875 379.5L900 384L900 601L875 601C850 601 800 601 750 601C700 601 650 601 600 601C550 601 500 601 450 601C400 601 350 601 300 601C250 601 200 601 150 601C100 601 50 601 25 601L0 601Z" fill="#b66f6e"></path><path d="M0 425L25 428C50 431 100 437 150 433C200 429 250 415 300 406.8C350 398.7 400 396.3 450 408C500 419.7 550 445.3 600 449.8C650 454.3 700 437.7 750 430.8C800 424 850 427 875 428.5L900 430L900 601L875 601C850 601 800 601 750 601C700 601 650 601 600 601C550 601 500 601 450 601C400 601 350 601 300 601C250 601 200 601 150 601C100 601 50 601 25 601L0 601Z" fill="#ab6565"></path><path d="M0 504L25 495.7C50 487.3 100 470.7 150 460.7C200 450.7 250 447.3 300 449.5C350 451.7 400 459.3 450 470.2C500 481 550 495 600 501C650 507 700 505 750 501.7C800 498.3 850 493.7 875 491.3L900 489L900 601L875 601C850 601 800 601 750 601C700 601 650 601 600 601C550 601 500 601 450 601C400 601 350 601 300 601C250 601 200 601 150 601C100 601 50 601 25 601L0 601Z" fill="#a15c5c"></path><path d="M0 517L25 520.8C50 524.7 100 532.3 150 531.2C200 530 250 520 300 511.5C350 503 400 496 450 498.8C500 501.7 550 514.3 600 516.2C650 518 700 509 750 511.2C800 513.3 850 526.7 875 533.3L900 540L900 601L875 601C850 601 800 601 750 601C700 601 650 601 600 601C550 601 500 601 450 601C400 601 350 601 300 601C250 601 200 601 150 601C100 601 50 601 25 601L0 601Z" fill="#965353"></path><path d="M0 541L25 543.8C50 546.7 100 552.3 150 554.7C200 557 250 556 300 557.7C350 559.3 400 563.7 450 563.3C500 563 550 558 600 552.8C650 547.7 700 542.3 750 544.5C800 546.7 850 556.3 875 561.2L900 566L900 601L875 601C850 601 800 601 750 601C700 601 650 601 600 601C550 601 500 601 450 601C400 601 350 601 300 601C250 601 200 601 150 601C100 601 50 601 25 601L0 601Z" fill="#8c4a4a"></path></svg>