<svg id="visual" viewBox="0 0 2560 1440" width="2560" height="1440" xmlns="http://www.w3.org/2000/svg" xmlns:xlink="http://www.w3.org/1999/xlink" version="1.1"><path d="M0 260L53.3 260C106.7 260 213.3 260 320 286.5C426.7 313 533.3 366 640 402C746.7 438 853.3 457 960 461.7C1066.7 466.3 1173.3 456.7 1280 435.2C1386.7 413.7 1493.3 380.3 1600 378C1706.7 375.7 1813.3 404.3 1920 433C2026.7 461.7 2133.3 490.3 2240 464C2346.7 437.7 2453.3 356.3 2506.7 315.7L2560 275L2560 0L2506.7 0C2453.3 0 2346.7 0 2240 0C2133.3 0 2026.7 0 1920 0C1813.3 0 1706.7 0 1600 0C1493.3 0 1386.7 0 1280 0C1173.3 0 1066.7 0 960 0C853.3 0 746.7 0 640 0C533.3 0 426.7 0 320 0C213.3 0 106.7 0 53.3 0L0 0Z" fill="#b0bdf3"></path><path d="M0 433L53.3 428.2C106.7 423.3 213.3 413.7 320 437.7C426.7 461.7 533.3 519.3 640 574.5C746.7 629.7 853.3 682.3 960 692C1066.7 701.7 1173.3 668.3 1280 634.8C1386.7 601.3 1493.3 567.7 1600 579.7C1706.7 591.7 1813.3 649.3 1920 673.3C2026.7 697.3 2133.3 687.7 2240 661.2C2346.7 634.7 2453.3 591.3 2506.7 569.7L2560 548L2560 273L2506.7 313.7C2453.3 354.3 2346.7 435.7 2240 462C2133.3 488.3 2026.7 459.7 1920 431C1813.3 402.3 1706.7 373.7 1600 376C1493.3 378.3 1386.7 411.7 1280 433.2C1173.3 454.7 1066.7 464.3 960 459.7C853.3 455 746.7 436 640 400C533.3 364 426.7 311 320 284.5C213.3 258 106.7 258 53.3 258L0 258Z" fill="#91a3ec"></path><path d="M0 1067L53.3 1040.5C106.7 1014 213.3 961 320 934.5C426.7 908 533.3 908 640 932C746.7 956 853.3 1004 960 1018.5C1066.7 1033 1173.3 1014 1280 997.2C1386.7 980.3 1493.3 965.7 1600 963.2C1706.7 960.7 1813.3 970.3 1920 1006.3C2026.7 1042.3 2133.3 1104.7 2240 1116.7C2346.7 1128.7 2453.3 1090.3 2506.7 1071.2L2560 1052L2560 546L2506.7 567.7C2453.3 589.3 2346.7 632.7 2240 659.2C2133.3 685.7 2026.7 695.3 1920 671.3C1813.3 647.3 1706.7 589.7 1600 577.7C1493.3 565.7 1386.7 599.3 1280 632.8C1173.3 666.3 1066.7 699.7 960 690C853.3 680.3 746.7 627.7 640 572.5C533.3 517.3 426.7 459.7 320 435.7C213.3 411.7 106.7 421.3 53.3 426.2L0 431Z" fill="#718ae5"></path><path d="M0 1268L53.3 1263.2C106.7 1258.3 213.3 1248.7 320 1243.8C426.7 1239 533.3 1239 640 1243.8C746.7 1248.7 853.3 1258.3 960 1270.3C1066.7 1282.3 1173.3 1296.7 1280 1308.7C1386.7 1320.7 1493.3 1330.3 1600 1318.3C1706.7 1306.3 1813.3 1272.7 1920 1272.7C2026.7 1272.7 2133.3 1306.3 2240 1308.8C2346.7 1311.3 2453.3 1282.7 2506.7 1268.3L2560 1254L2560 1050L2506.7 1069.2C2453.3 1088.3 2346.7 1126.7 2240 1114.7C2133.3 1102.7 2026.7 1040.3 1920 1004.3C1813.3 968.3 1706.7 958.7 1600 961.2C1493.3 963.7 1386.7 978.3 1280 995.2C1173.3 1012 1066.7 1031 960 1016.5C853.3 1002 746.7 954 640 930C533.3 906 426.7 906 320 932.5C213.3 959 106.7 1012 53.3 1038.5L0 1065Z" fill="#4c71dd"></path><path d="M0 1441L53.3 1441C106.7 1441 213.3 1441 320 1441C426.7 1441 533.3 1441 640 1441C746.7 1441 853.3 1441 960 1441C1066.7 1441 1173.3 1441 1280 1441C1386.7 1441 1493.3 1441 1600 1441C1706.7 1441 1813.3 1441 1920 1441C2026.7 1441 2133.3 1441 2240 1441C2346.7 1441 2453.3 1441 2506.7 1441L2560 1441L2560 1252L2506.7 1266.3C2453.3 1280.7 2346.7 1309.3 2240 1306.8C2133.3 1304.3 2026.7 1270.7 1920 1270.7C1813.3 1270.7 1706.7 1304.3 1600 1316.3C1493.3 1328.3 1386.7 1318.7 1280 1306.7C1173.3 1294.7 1066.7 1280.3 960 1268.3C853.3 1256.3 746.7 1246.7 640 1241.8C533.3 1237 426.7 1237 320 1241.8C213.3 1246.7 106.7 1256.3 53.3 1261.2L0 1266Z" fill="#0659d5"></path></svg>